# xmcd CD database file
#
# Track frame offsets:
#	150
#	13184
#	40971
#
# Disc length: 717 seconds
#
# Revision: 0
# Processed by: cddbd v1.5.1PL2 Copyright (c) Steve Scherf et al.
# Submitted via: CDex 1.50beta8a
#
DISCID=1e02cb03
DTITLE=仁井山征弘_feat_GREAT_G_and_surprise  - ジンギスカン
DYEAR=2006
DGENRE=Soul
TTITLE0=ジンギスカン
TTITLE1=TOKISOBA
TTITLE2=ジンギスカン(instrumental)
EXTD=YEAR: 2006
EXTT0=
EXTT1=
EXTT2=
PLAYORDER=
